<svg width="366" height="153" viewBox="0 0 366 153" fill="none" xmlns="http://www.w3.org/2000/svg">
<path d="M144.98 129.68H145.56C146.24 129.68 146.7 130.17 146.95 131.14L148.19 129.68H149.07V130.04C148.24 131.16 147.83 131.94 147.83 132.38C147.98 132.38 148.44 133.01 149.22 134.28V134.5H148.2C148.1 134.5 147.69 134.01 146.96 133.04C146.52 133.92 146.16 134.4 145.87 134.5H144.85C145.68 133.04 146.21 132.26 146.46 132.16C145.49 130.75 145 129.92 145 129.68H144.98ZM146.8 123.55H146.95C148.21 123.55 148.85 124.09 148.85 125.16H147.68C147.68 124.67 147.39 124.43 146.8 124.43C146.6 124.43 146.41 124.6 146.22 124.94C147.97 125.62 148.85 126.11 148.85 126.4C148.85 126.5 148.92 126.67 149.07 126.91C149.07 127.79 148.36 128.32 146.95 128.52C145.64 128.33 144.98 127.72 144.98 126.7H146.22C146.22 127.19 146.34 127.43 146.58 127.43H147.46C147.7 127.43 147.82 127.31 147.82 127.07V126.71C146.07 126.27 145.19 125.81 145.19 125.32V124.66C145.58 123.93 146.11 123.57 146.8 123.57V123.55ZM145.34 117.42H146.07C146.31 117.42 146.43 117.54 146.43 117.78V120.19C146.48 120.92 146.65 121.28 146.94 121.28H147.67C147.82 121.28 147.99 121.11 148.18 120.77V117.78C148.23 117.54 148.35 117.42 148.54 117.42H149.2V120.78C149.2 121.8 148.49 122.31 147.08 122.31C145.91 122.16 145.33 121.65 145.33 120.78V117.42H145.34ZM147.09 48.0801H205.57V65.4501H167.89V90.2701H195.19L195.55 90.4901L195.33 90.8501C195.23 94.3501 195.18 96.4001 195.18 96.9801H192.19V97.1301C192.19 98.4001 192.07 101.1 191.83 105.23H194.6C194.6 107.23 194.43 108.22 194.09 108.22H174.89V111.8H164.89V113.7H167.88V122.82H177.88V124.43H167.88V149.76L167.73 151H156.93V152.61H147.44C147.2 152.61 147.08 152.49 147.08 152.25V149.62L147.3 147.87H152.41V145.24H147.08V135.17H149.56V98.2401H153.79V95.6101H147.08V48.0801H147.09ZM158.18 122.82V124.43H167.74V122.82H158.18ZM168.25 119.17H168.4C170.25 120 171.32 120.41 171.61 120.41V121.43L168.4 122.52H168.25V121.94C168.25 121.79 168.95 121.45 170.37 120.92V120.77C170.13 120.77 169.42 120.53 168.25 120.04V119.16V119.17Z" fill="#3F67BD"/>
<path d="M216.49 48H277.8V65.44H257.51V137.77H266.71V139.89H257.51V147.85H252.04V150.62H255.91V152.59H237.3C237.06 152.59 236.94 152.47 236.94 152.23V65.45H216.5V48.01L216.49 48ZM250.28 137.77V139.89H257.36V137.77H250.28Z" fill="#3F67BD"/>
<path d="M289.76 48.1499H316.69C332.46 48.1499 342.53 52.2099 346.91 60.3399C349.49 65.4999 350.78 72.0399 350.78 79.9699C350.63 81.3799 350.56 82.8199 350.56 84.2799H365.52V89.3199H350.05V89.1699C350.29 86.1499 350.41 84.5199 350.41 84.2799H341.72V89.3199H350.04V107.06H332.82V113.19H332.67C319.39 113.29 311.87 113.34 310.12 113.34V122.54H306.47V138.89H308.51V152.61H292.16V146.19H289.9V140.79C289.9 134.56 289.85 124.42 289.75 110.35H299.68V105.02H289.75V48.1499H289.76ZM310.12 65.8899V95.5999H316.32V91.2899H328.65C330.3 89.7799 331.13 85.5499 331.13 78.5899C331.13 71.6299 329.62 68.1099 326.6 67.1299C325.48 66.2999 322.93 65.8899 318.94 65.8899H310.11H310.12ZM351.28 90.4099H351.79C352.37 90.8999 352.67 91.3599 352.67 91.7999L353.84 90.4099H354.57V90.6999C353.64 91.9699 353.18 93.1799 353.18 94.3499H352.67C352.43 94.3499 352.26 93.6699 352.16 92.3099C351.96 92.3099 351.55 91.7299 350.92 90.5599L351.28 90.4099ZM351.06 95.5899H354.2V96.4699H353.18V99.2399C353.18 99.4799 353.06 99.5999 352.82 99.5999H352.46C352.26 99.5999 352.17 99.4799 352.17 99.2399V96.4699H351.08V95.5899H351.06Z" fill="#3F67BD"/>
<path d="M114.6 21.6525L60.0654 41.3584L79.7714 95.8927L134.306 76.1868L114.6 21.6525Z" fill="white"/>
<path d="M80.1393 61.9811L41.6885 52.0527L31.7601 90.5035L70.211 100.432L80.1393 61.9811Z" fill="white"/>
<path d="M44.4649 121.024L35.2637 95.5601L60.7273 86.3588L69.9286 111.822L44.4649 121.024Z" fill="white"/>
<path d="M45.6249 139.289L58.2637 124.297L73.2553 136.936L60.6165 151.928L45.6249 139.289Z" fill="white"/>
<g style="mix-blend-mode:multiply">
<path d="M114.583 21.6491L60.0483 41.355L79.7543 95.8893L134.289 76.1834L114.583 21.6491Z" fill="#3F67BD"/>
</g>
<g style="mix-blend-mode:multiply">
<path d="M80.1408 61.9786L41.6899 52.0503L31.7616 90.501L70.2124 100.429L80.1408 61.9786Z" fill="#3F67BD"/>
</g>
<g style="mix-blend-mode:multiply">
<path d="M44.4513 121.015L35.25 95.5513L60.7136 86.35L69.9149 111.814L44.4513 121.015Z" fill="#3F67BD"/>
</g>
<g style="mix-blend-mode:multiply">
<path d="M45.6122 139.277L58.251 124.286L73.2426 136.924L60.6038 151.916L45.6122 139.277Z" fill="#3F67BD"/>
</g>
</svg>
