<svg width="334" height="143" viewBox="0 0 334 143" fill="none" xmlns="http://www.w3.org/2000/svg">
<path d="M112.98 101.68H113.56C114.24 101.68 114.7 102.17 114.95 103.14L116.19 101.68H117.07V102.04C116.24 103.16 115.83 103.94 115.83 104.38C115.98 104.38 116.44 105.01 117.22 106.28V106.5H116.2C116.1 106.5 115.69 106.01 114.96 105.04C114.52 105.92 114.16 106.4 113.87 106.5H112.85C113.68 105.04 114.21 104.26 114.46 104.16C113.49 102.75 113 101.92 113 101.68H112.98ZM114.8 95.5501H114.95C116.21 95.5501 116.85 96.0901 116.85 97.1601H115.68C115.68 96.6701 115.39 96.4301 114.8 96.4301C114.6 96.4301 114.41 96.6001 114.22 96.9401C115.97 97.6201 116.85 98.1101 116.85 98.4001C116.85 98.5001 116.92 98.6701 117.07 98.9101C117.07 99.7901 116.36 100.32 114.95 100.52C113.64 100.33 112.98 99.7201 112.98 98.7001H114.22C114.22 99.1901 114.34 99.4301 114.58 99.4301H115.46C115.7 99.4301 115.82 99.3101 115.82 99.0701V98.7101C114.07 98.2701 113.19 97.8101 113.19 97.3201V96.6601C113.58 95.9301 114.11 95.5701 114.8 95.5701V95.5501ZM113.34 89.4201H114.07C114.31 89.4201 114.43 89.5401 114.43 89.7801V92.1901C114.48 92.9201 114.65 93.2801 114.94 93.2801H115.67C115.82 93.2801 115.99 93.1101 116.18 92.7701V89.7801C116.23 89.5401 116.35 89.4201 116.54 89.4201H117.2V92.7801C117.2 93.8001 116.49 94.3101 115.08 94.3101C113.91 94.1601 113.33 93.6501 113.33 92.7801V89.4201H113.34ZM115.09 20.0801H173.57V37.4501H135.89V62.2701H163.19L163.55 62.4901L163.33 62.8501C163.23 66.3501 163.18 68.4001 163.18 68.9801H160.19V69.1301C160.19 70.4001 160.07 73.1001 159.83 77.2301H162.6C162.6 79.2301 162.43 80.2201 162.09 80.2201H142.89V83.8001H132.89V85.7001H135.88V94.8201H145.88V96.4301H135.88V121.76L135.73 123H124.93V124.61H115.44C115.2 124.61 115.08 124.49 115.08 124.25V121.62L115.3 119.87H120.41V117.24H115.08V107.17H117.56V70.2401H121.79V67.6101H115.08V20.0801H115.09ZM126.18 94.8201V96.4301H135.74V94.8201H126.18ZM136.25 91.1701H136.4C138.25 92.0001 139.32 92.4101 139.61 92.4101V93.4301L136.4 94.5201H136.25V93.9401C136.25 93.7901 136.95 93.4501 138.37 92.9201V92.7701C138.13 92.7701 137.42 92.5301 136.25 92.0401V91.1601V91.1701Z" fill="#3F67BD"/>
<path d="M184.49 20H245.8V37.44H225.51V109.77H234.71V111.89H225.51V119.85H220.04V122.62H223.91V124.59H205.3C205.06 124.59 204.94 124.47 204.94 124.23V37.45H184.5V20.01L184.49 20ZM218.28 109.77V111.89H225.36V109.77H218.28Z" fill="#3F67BD"/>
<path d="M257.76 20.1499H284.69C300.46 20.1499 310.53 24.2099 314.91 32.3399C317.49 37.4999 318.78 44.0399 318.78 51.9699C318.63 53.3799 318.56 54.8199 318.56 56.2799H333.52V61.3199H318.05V61.1699C318.29 58.1499 318.41 56.5199 318.41 56.2799H309.72V61.3199H318.04V79.0599H300.82V85.1899H300.67C287.39 85.2899 279.87 85.3399 278.12 85.3399V94.5399H274.47V110.89H276.51V124.61H260.16V118.19H257.9V112.79C257.9 106.56 257.85 96.4199 257.75 82.3499H267.68V77.0199H257.75V20.1499H257.76ZM278.12 37.8899V67.5999H284.32V63.2899H296.65C298.3 61.7799 299.13 57.5499 299.13 50.5899C299.13 43.6299 297.62 40.1099 294.6 39.1299C293.48 38.2999 290.93 37.8899 286.94 37.8899H278.11H278.12ZM319.28 62.4099H319.79C320.37 62.8999 320.67 63.3599 320.67 63.7999L321.84 62.4099H322.57V62.6999C321.64 63.9699 321.18 65.1799 321.18 66.3499H320.67C320.43 66.3499 320.26 65.6699 320.16 64.3099C319.96 64.3099 319.55 63.7299 318.92 62.5599L319.28 62.4099ZM319.06 67.5899H322.2V68.4699H321.18V71.2399C321.18 71.4799 321.06 71.5999 320.82 71.5999H320.46C320.26 71.5999 320.17 71.4799 320.17 71.2399V68.4699H319.08V67.5899H319.06Z" fill="#3F67BD"/>
<g style="mix-blend-mode:multiply">
<path d="M33.4036 9.20251e-05L6.14209 56.0967L62.2387 83.3582L89.5002 27.2616L33.4036 9.20251e-05Z" fill="#3F67BD"/>
</g>
<g style="mix-blend-mode:multiply">
<path d="M37.0899 56.9251L0 78.1118L21.1867 115.202L58.2767 94.015L37.0899 56.9251Z" fill="#3F67BD"/>
</g>
<g style="mix-blend-mode:multiply">
<path d="M53.8679 129.208L27.6748 116.479L40.404 90.2859L66.597 103.015L53.8679 129.208Z" fill="#3F67BD"/>
</g>
<g style="mix-blend-mode:multiply">
<path d="M68.4611 142.416L66.96 121.379L87.9975 119.878L89.4986 140.915L68.4611 142.416Z" fill="#3F67BD"/>
</g>
</svg>
